<?xml version="1.0" encoding="UTF-8"?>
<svg xmlns="http://www.w3.org/2000/svg" xmlns:xlink="http://www.w3.org/1999/xlink" width="100" height="100" viewBox="0 0 100 100">
<path fill-rule="nonzero" fill="rgb(0%, 49.803922%, 100%)" fill-opacity="1" stroke-width="2" stroke-linecap="butt" stroke-linejoin="miter" stroke="rgb(0%, 49.803922%, 100%)" stroke-opacity="1" stroke-miterlimit="10" d="M 9 0 L 4.5 8.226562 L -4.5 8.226562 L -9 0 L -4.5 -8.226562 L 4.5 -8.226562 Z M 9 0 "/>
<path fill-rule="nonzero" fill="rgb(100%, 0%, 0%)" fill-opacity="1" stroke-width="2" stroke-linecap="butt" stroke-linejoin="miter" stroke="rgb(100%, 0%, 0%)" stroke-opacity="1" stroke-miterlimit="10" d="M 24 9 L 19.5 17.226562 L 10.5 17.226562 L 6 9 L 10.5 0.773438 L 19.5 0.773438 Z M 24 9 "/>
<path fill="none" stroke-width="2" stroke-linecap="butt" stroke-linejoin="miter" stroke="rgb(49.803922%, 0%, 100%)" stroke-opacity="1" stroke-miterlimit="10" d="M 24 -9 L 19.5 -0.773438 L 10.5 -0.773438 L 6 -9 L 10.5 -17.226562 L 19.5 -17.226562 Z M 24 -9 "/>
<path fill-rule="nonzero" fill="rgb(100%, 100%, 0%)" fill-opacity="1" stroke-width="2" stroke-linecap="butt" stroke-linejoin="miter" stroke="rgb(100%, 100%, 0%)" stroke-opacity="1" stroke-miterlimit="10" d="M 39 0 L 34.5 8.226562 L 25.5 8.226562 L 21 0 L 25.5 -8.226562 L 34.5 -8.226562 Z M 39 0 "/>
<path fill-rule="nonzero" fill="rgb(100%, 49.803922%, 0%)" fill-opacity="1" stroke-width="2" stroke-linecap="butt" stroke-linejoin="miter" stroke="rgb(100%, 49.803922%, 0%)" stroke-opacity="1" stroke-miterlimit="10" d="M 54 9 L 49.5 17.226562 L 40.5 17.226562 L 36 9 L 40.5 0.773438 L 49.5 0.773438 Z M 54 9 "/>
<path fill="none" stroke-width="2" stroke-linecap="butt" stroke-linejoin="miter" stroke="rgb(0%, 100%, 49.803922%)" stroke-opacity="1" stroke-miterlimit="10" d="M 54 -9 L 49.5 -0.773438 L 40.5 -0.773438 L 36 -9 L 40.5 -17.226562 L 49.5 -17.226562 Z M 54 -9 "/>
<path fill-rule="nonzero" fill="rgb(100%, 100%, 0%)" fill-opacity="1" stroke-width="2" stroke-linecap="butt" stroke-linejoin="miter" stroke="rgb(100%, 100%, 0%)" stroke-opacity="1" stroke-miterlimit="10" d="M 69 0 L 64.5 8.226562 L 55.5 8.226562 L 51 0 L 55.5 -8.226562 L 64.5 -8.226562 Z M 69 0 "/>
<path fill-rule="nonzero" fill="rgb(100%, 0%, 49.803922%)" fill-opacity="1" stroke-width="2" stroke-linecap="butt" stroke-linejoin="miter" stroke="rgb(100%, 0%, 49.803922%)" stroke-opacity="1" stroke-miterlimit="10" d="M 84 9 L 79.5 17.226562 L 70.5 17.226562 L 66 9 L 70.5 0.773438 L 79.5 0.773438 Z M 84 9 "/>
<path fill="none" stroke-width="2" stroke-linecap="butt" stroke-linejoin="miter" stroke="rgb(0%, 49.803922%, 100%)" stroke-opacity="1" stroke-miterlimit="10" d="M 84 -9 L 79.5 -0.773438 L 70.5 -0.773438 L 66 -9 L 70.5 -17.226562 L 79.5 -17.226562 Z M 84 -9 "/>
<path fill-rule="nonzero" fill="rgb(100%, 0%, 100%)" fill-opacity="1" stroke-width="2" stroke-linecap="butt" stroke-linejoin="miter" stroke="rgb(100%, 0%, 100%)" stroke-opacity="1" stroke-miterlimit="10" d="M 99 0 L 94.5 8.226562 L 85.5 8.226562 L 81 0 L 85.5 -8.226562 L 94.5 -8.226562 Z M 99 0 "/>
<path fill-rule="nonzero" fill="rgb(100%, 100%, 0%)" fill-opacity="1" stroke-width="2" stroke-linecap="butt" stroke-linejoin="miter" stroke="rgb(100%, 100%, 0%)" stroke-opacity="1" stroke-miterlimit="10" d="M 114 9 L 109.5 17.226562 L 100.5 17.226562 L 96 9 L 100.5 0.773438 L 109.5 0.773438 Z M 114 9 "/>
<path fill-rule="nonzero" fill="rgb(100%, 49.803922%, 0%)" fill-opacity="1" stroke-width="2" stroke-linecap="butt" stroke-linejoin="miter" stroke="rgb(100%, 49.803922%, 0%)" stroke-opacity="1" stroke-miterlimit="10" d="M 39 17 L 34.5 25.226562 L 25.5 25.226562 L 21 17 L 25.5 8.773438 L 34.5 8.773438 Z M 39 17 "/>
<path fill-rule="nonzero" fill="rgb(0%, 49.803922%, 100%)" fill-opacity="1" stroke-width="2" stroke-linecap="butt" stroke-linejoin="miter" stroke="rgb(0%, 49.803922%, 100%)" stroke-opacity="1" stroke-miterlimit="10" d="M 69 17 L 64.5 25.226562 L 55.5 25.226562 L 51 17 L 55.5 8.773438 L 64.5 8.773438 Z M 69 17 "/>
<path fill-rule="nonzero" fill="rgb(100%, 100%, 0%)" fill-opacity="1" stroke-width="2" stroke-linecap="butt" stroke-linejoin="miter" stroke="rgb(100%, 100%, 0%)" stroke-opacity="1" stroke-miterlimit="10" d="M 99 17 L 94.5 25.226562 L 85.5 25.226562 L 81 17 L 85.5 8.773438 L 94.5 8.773438 Z M 99 17 "/>
<path fill-rule="nonzero" fill="rgb(100%, 49.803922%, 0%)" fill-opacity="1" stroke-width="2" stroke-linecap="butt" stroke-linejoin="miter" stroke="rgb(100%, 49.803922%, 0%)" stroke-opacity="1" stroke-miterlimit="10" d="M 9 17 L 4.5 25.226562 L -4.5 25.226562 L -9 17 L -4.5 8.773438 L 4.5 8.773438 Z M 9 17 "/>
<path fill-rule="nonzero" fill="rgb(0%, 49.803922%, 100%)" fill-opacity="1" stroke-width="2" stroke-linecap="butt" stroke-linejoin="miter" stroke="rgb(0%, 49.803922%, 100%)" stroke-opacity="1" stroke-miterlimit="10" d="M 24 26 L 19.5 34.226562 L 10.5 34.226562 L 6 26 L 10.5 17.773438 L 19.5 17.773438 Z M 24 26 "/>
<path fill-rule="nonzero" fill="rgb(0%, 100%, 49.803922%)" fill-opacity="1" stroke-width="2" stroke-linecap="butt" stroke-linejoin="miter" stroke="rgb(0%, 100%, 49.803922%)" stroke-opacity="1" stroke-miterlimit="10" d="M 54 26 L 49.5 34.226562 L 40.5 34.226562 L 36 26 L 40.5 17.773438 L 49.5 17.773438 Z M 54 26 "/>
<path fill-rule="nonzero" fill="rgb(0%, 100%, 100%)" fill-opacity="1" stroke-width="2" stroke-linecap="butt" stroke-linejoin="miter" stroke="rgb(0%, 100%, 100%)" stroke-opacity="1" stroke-miterlimit="10" d="M 84 26 L 79.5 34.226562 L 70.5 34.226562 L 66 26 L 70.5 17.773438 L 79.5 17.773438 Z M 84 26 "/>
<path fill-rule="nonzero" fill="rgb(100%, 0%, 49.803922%)" fill-opacity="1" stroke-width="2" stroke-linecap="butt" stroke-linejoin="miter" stroke="rgb(100%, 0%, 49.803922%)" stroke-opacity="1" stroke-miterlimit="10" d="M 114 26 L 109.5 34.226562 L 100.5 34.226562 L 96 26 L 100.5 17.773438 L 109.5 17.773438 Z M 114 26 "/>
<path fill-rule="nonzero" fill="rgb(49.803922%, 100%, 0%)" fill-opacity="1" stroke-width="2" stroke-linecap="butt" stroke-linejoin="miter" stroke="rgb(49.803922%, 100%, 0%)" stroke-opacity="1" stroke-miterlimit="10" d="M 39 35 L 34.5 43.226562 L 25.5 43.226562 L 21 35 L 25.5 26.773438 L 34.5 26.773438 Z M 39 35 "/>
<path fill-rule="nonzero" fill="rgb(49.803922%, 100%, 0%)" fill-opacity="1" stroke-width="2" stroke-linecap="butt" stroke-linejoin="miter" stroke="rgb(49.803922%, 100%, 0%)" stroke-opacity="1" stroke-miterlimit="10" d="M 69 35 L 64.5 43.226562 L 55.5 43.226562 L 51 35 L 55.5 26.773438 L 64.5 26.773438 Z M 69 35 "/>
<path fill-rule="nonzero" fill="rgb(49.803922%, 0%, 100%)" fill-opacity="1" stroke-width="2" stroke-linecap="butt" stroke-linejoin="miter" stroke="rgb(49.803922%, 0%, 100%)" stroke-opacity="1" stroke-miterlimit="10" d="M 99 35 L 94.5 43.226562 L 85.5 43.226562 L 81 35 L 85.5 26.773438 L 94.5 26.773438 Z M 99 35 "/>
<path fill-rule="nonzero" fill="rgb(100%, 0%, 100%)" fill-opacity="1" stroke-width="2" stroke-linecap="butt" stroke-linejoin="miter" stroke="rgb(100%, 0%, 100%)" stroke-opacity="1" stroke-miterlimit="10" d="M 9 35 L 4.5 43.226562 L -4.5 43.226562 L -9 35 L -4.5 26.773438 L 4.5 26.773438 Z M 9 35 "/>
<path fill-rule="nonzero" fill="rgb(0%, 100%, 0%)" fill-opacity="1" stroke-width="2" stroke-linecap="butt" stroke-linejoin="miter" stroke="rgb(0%, 100%, 0%)" stroke-opacity="1" stroke-miterlimit="10" d="M 24 43 L 19.5 51.226562 L 10.5 51.226562 L 6 43 L 10.5 34.773438 L 19.5 34.773438 Z M 24 43 "/>
<path fill-rule="nonzero" fill="rgb(100%, 0%, 49.803922%)" fill-opacity="1" stroke-width="2" stroke-linecap="butt" stroke-linejoin="miter" stroke="rgb(100%, 0%, 49.803922%)" stroke-opacity="1" stroke-miterlimit="10" d="M 54 43 L 49.5 51.226562 L 40.5 51.226562 L 36 43 L 40.5 34.773438 L 49.5 34.773438 Z M 54 43 "/>
<path fill-rule="nonzero" fill="rgb(100%, 0%, 100%)" fill-opacity="1" stroke-width="2" stroke-linecap="butt" stroke-linejoin="miter" stroke="rgb(100%, 0%, 100%)" stroke-opacity="1" stroke-miterlimit="10" d="M 84 43 L 79.5 51.226562 L 70.5 51.226562 L 66 43 L 70.5 34.773438 L 79.5 34.773438 Z M 84 43 "/>
<path fill-rule="nonzero" fill="rgb(0%, 100%, 0%)" fill-opacity="1" stroke-width="2" stroke-linecap="butt" stroke-linejoin="miter" stroke="rgb(0%, 100%, 0%)" stroke-opacity="1" stroke-miterlimit="10" d="M 114 43 L 109.5 51.226562 L 100.5 51.226562 L 96 43 L 100.5 34.773438 L 109.5 34.773438 Z M 114 43 "/>
<path fill-rule="nonzero" fill="rgb(100%, 0%, 49.803922%)" fill-opacity="1" stroke-width="2" stroke-linecap="butt" stroke-linejoin="miter" stroke="rgb(100%, 0%, 49.803922%)" stroke-opacity="1" stroke-miterlimit="10" d="M 39 52 L 34.5 60.226562 L 25.5 60.226562 L 21 52 L 25.5 43.773438 L 34.5 43.773438 Z M 39 52 "/>
<path fill-rule="nonzero" fill="rgb(0%, 49.803922%, 100%)" fill-opacity="1" stroke-width="2" stroke-linecap="butt" stroke-linejoin="miter" stroke="rgb(0%, 49.803922%, 100%)" stroke-opacity="1" stroke-miterlimit="10" d="M 69 52 L 64.5 60.226562 L 55.5 60.226562 L 51 52 L 55.5 43.773438 L 64.5 43.773438 Z M 69 52 "/>
<path fill-rule="nonzero" fill="rgb(49.803922%, 100%, 0%)" fill-opacity="1" stroke-width="2" stroke-linecap="butt" stroke-linejoin="miter" stroke="rgb(49.803922%, 100%, 0%)" stroke-opacity="1" stroke-miterlimit="10" d="M 99 52 L 94.5 60.226562 L 85.5 60.226562 L 81 52 L 85.5 43.773438 L 94.5 43.773438 Z M 99 52 "/>
<path fill-rule="nonzero" fill="rgb(0%, 0%, 100%)" fill-opacity="1" stroke-width="2" stroke-linecap="butt" stroke-linejoin="miter" stroke="rgb(0%, 0%, 100%)" stroke-opacity="1" stroke-miterlimit="10" d="M 9 52 L 4.5 60.226562 L -4.5 60.226562 L -9 52 L -4.5 43.773438 L 4.5 43.773438 Z M 9 52 "/>
<path fill-rule="nonzero" fill="rgb(0%, 100%, 49.803922%)" fill-opacity="1" stroke-width="2" stroke-linecap="butt" stroke-linejoin="miter" stroke="rgb(0%, 100%, 49.803922%)" stroke-opacity="1" stroke-miterlimit="10" d="M 24 61 L 19.5 69.226562 L 10.5 69.226562 L 6 61 L 10.5 52.773438 L 19.5 52.773438 Z M 24 61 "/>
<path fill-rule="nonzero" fill="rgb(100%, 100%, 0%)" fill-opacity="1" stroke-width="2" stroke-linecap="butt" stroke-linejoin="miter" stroke="rgb(100%, 100%, 0%)" stroke-opacity="1" stroke-miterlimit="10" d="M 54 61 L 49.5 69.226562 L 40.5 69.226562 L 36 61 L 40.5 52.773438 L 49.5 52.773438 Z M 54 61 "/>
<path fill-rule="nonzero" fill="rgb(100%, 49.803922%, 0%)" fill-opacity="1" stroke-width="2" stroke-linecap="butt" stroke-linejoin="miter" stroke="rgb(100%, 49.803922%, 0%)" stroke-opacity="1" stroke-miterlimit="10" d="M 84 61 L 79.5 69.226562 L 70.5 69.226562 L 66 61 L 70.5 52.773438 L 79.5 52.773438 Z M 84 61 "/>
<path fill-rule="nonzero" fill="rgb(0%, 100%, 49.803922%)" fill-opacity="1" stroke-width="2" stroke-linecap="butt" stroke-linejoin="miter" stroke="rgb(0%, 100%, 49.803922%)" stroke-opacity="1" stroke-miterlimit="10" d="M 114 61 L 109.5 69.226562 L 100.5 69.226562 L 96 61 L 100.5 52.773438 L 109.5 52.773438 Z M 114 61 "/>
<path fill-rule="nonzero" fill="rgb(100%, 0%, 49.803922%)" fill-opacity="1" stroke-width="2" stroke-linecap="butt" stroke-linejoin="miter" stroke="rgb(100%, 0%, 49.803922%)" stroke-opacity="1" stroke-miterlimit="10" d="M 39 69 L 34.5 77.226562 L 25.5 77.226562 L 21 69 L 25.5 60.773438 L 34.5 60.773438 Z M 39 69 "/>
<path fill-rule="nonzero" fill="rgb(100%, 0%, 49.803922%)" fill-opacity="1" stroke-width="2" stroke-linecap="butt" stroke-linejoin="miter" stroke="rgb(100%, 0%, 49.803922%)" stroke-opacity="1" stroke-miterlimit="10" d="M 69 69 L 64.5 77.226562 L 55.5 77.226562 L 51 69 L 55.5 60.773438 L 64.5 60.773438 Z M 69 69 "/>
<path fill-rule="nonzero" fill="rgb(0%, 100%, 49.803922%)" fill-opacity="1" stroke-width="2" stroke-linecap="butt" stroke-linejoin="miter" stroke="rgb(0%, 100%, 49.803922%)" stroke-opacity="1" stroke-miterlimit="10" d="M 99 69 L 94.5 77.226562 L 85.5 77.226562 L 81 69 L 85.5 60.773438 L 94.5 60.773438 Z M 99 69 "/>
<path fill-rule="nonzero" fill="rgb(100%, 100%, 0%)" fill-opacity="1" stroke-width="2" stroke-linecap="butt" stroke-linejoin="miter" stroke="rgb(100%, 100%, 0%)" stroke-opacity="1" stroke-miterlimit="10" d="M 9 69 L 4.5 77.226562 L -4.5 77.226562 L -9 69 L -4.5 60.773438 L 4.5 60.773438 Z M 9 69 "/>
<path fill-rule="nonzero" fill="rgb(0%, 100%, 100%)" fill-opacity="1" stroke-width="2" stroke-linecap="butt" stroke-linejoin="miter" stroke="rgb(0%, 100%, 100%)" stroke-opacity="1" stroke-miterlimit="10" d="M 24 78 L 19.5 86.226562 L 10.5 86.226562 L 6 78 L 10.5 69.773438 L 19.5 69.773438 Z M 24 78 "/>
<path fill-rule="nonzero" fill="rgb(100%, 0%, 49.803922%)" fill-opacity="1" stroke-width="2" stroke-linecap="butt" stroke-linejoin="miter" stroke="rgb(100%, 0%, 49.803922%)" stroke-opacity="1" stroke-miterlimit="10" d="M 54 78 L 49.5 86.226562 L 40.5 86.226562 L 36 78 L 40.5 69.773438 L 49.5 69.773438 Z M 54 78 "/>
<path fill-rule="nonzero" fill="rgb(0%, 0%, 100%)" fill-opacity="1" stroke-width="2" stroke-linecap="butt" stroke-linejoin="miter" stroke="rgb(0%, 0%, 100%)" stroke-opacity="1" stroke-miterlimit="10" d="M 84 78 L 79.5 86.226562 L 70.5 86.226562 L 66 78 L 70.5 69.773438 L 79.5 69.773438 Z M 84 78 "/>
<path fill-rule="nonzero" fill="rgb(100%, 49.803922%, 0%)" fill-opacity="1" stroke-width="2" stroke-linecap="butt" stroke-linejoin="miter" stroke="rgb(100%, 49.803922%, 0%)" stroke-opacity="1" stroke-miterlimit="10" d="M 114 78 L 109.5 86.226562 L 100.5 86.226562 L 96 78 L 100.5 69.773438 L 109.5 69.773438 Z M 114 78 "/>
<path fill-rule="nonzero" fill="rgb(0%, 100%, 49.803922%)" fill-opacity="1" stroke-width="2" stroke-linecap="butt" stroke-linejoin="miter" stroke="rgb(0%, 100%, 49.803922%)" stroke-opacity="1" stroke-miterlimit="10" d="M 39 87 L 34.5 95.226562 L 25.5 95.226562 L 21 87 L 25.5 78.773438 L 34.5 78.773438 Z M 39 87 "/>
<path fill-rule="nonzero" fill="rgb(100%, 0%, 100%)" fill-opacity="1" stroke-width="2" stroke-linecap="butt" stroke-linejoin="miter" stroke="rgb(100%, 0%, 100%)" stroke-opacity="1" stroke-miterlimit="10" d="M 69 87 L 64.5 95.226562 L 55.5 95.226562 L 51 87 L 55.5 78.773438 L 64.5 78.773438 Z M 69 87 "/>
<path fill-rule="nonzero" fill="rgb(100%, 49.803922%, 0%)" fill-opacity="1" stroke-width="2" stroke-linecap="butt" stroke-linejoin="miter" stroke="rgb(100%, 49.803922%, 0%)" stroke-opacity="1" stroke-miterlimit="10" d="M 99 87 L 94.5 95.226562 L 85.5 95.226562 L 81 87 L 85.5 78.773438 L 94.5 78.773438 Z M 99 87 "/>
<path fill-rule="nonzero" fill="rgb(100%, 0%, 49.803922%)" fill-opacity="1" stroke-width="2" stroke-linecap="butt" stroke-linejoin="miter" stroke="rgb(100%, 0%, 49.803922%)" stroke-opacity="1" stroke-miterlimit="10" d="M 9 87 L 4.5 95.226562 L -4.5 95.226562 L -9 87 L -4.5 78.773438 L 4.5 78.773438 Z M 9 87 "/>
<path fill-rule="nonzero" fill="rgb(49.803922%, 100%, 0%)" fill-opacity="1" stroke-width="2" stroke-linecap="butt" stroke-linejoin="miter" stroke="rgb(49.803922%, 100%, 0%)" stroke-opacity="1" stroke-miterlimit="10" d="M 24 95 L 19.5 103.226562 L 10.5 103.226562 L 6 95 L 10.5 86.773438 L 19.5 86.773438 Z M 24 95 "/>
<path fill-rule="nonzero" fill="rgb(0%, 100%, 100%)" fill-opacity="1" stroke-width="2" stroke-linecap="butt" stroke-linejoin="miter" stroke="rgb(0%, 100%, 100%)" stroke-opacity="1" stroke-miterlimit="10" d="M 54 95 L 49.5 103.226562 L 40.5 103.226562 L 36 95 L 40.5 86.773438 L 49.5 86.773438 Z M 54 95 "/>
<path fill-rule="nonzero" fill="rgb(49.803922%, 100%, 0%)" fill-opacity="1" stroke-width="2" stroke-linecap="butt" stroke-linejoin="miter" stroke="rgb(49.803922%, 100%, 0%)" stroke-opacity="1" stroke-miterlimit="10" d="M 84 95 L 79.5 103.226562 L 70.5 103.226562 L 66 95 L 70.5 86.773438 L 79.5 86.773438 Z M 84 95 "/>
<path fill-rule="nonzero" fill="rgb(100%, 100%, 0%)" fill-opacity="1" stroke-width="2" stroke-linecap="butt" stroke-linejoin="miter" stroke="rgb(100%, 100%, 0%)" stroke-opacity="1" stroke-miterlimit="10" d="M 114 95 L 109.5 103.226562 L 100.5 103.226562 L 96 95 L 100.5 86.773438 L 109.5 86.773438 Z M 114 95 "/>
<path fill-rule="nonzero" fill="rgb(49.803922%, 100%, 0%)" fill-opacity="1" stroke-width="2" stroke-linecap="butt" stroke-linejoin="miter" stroke="rgb(49.803922%, 100%, 0%)" stroke-opacity="1" stroke-miterlimit="10" d="M 39 104 L 34.5 112.226562 L 25.5 112.226562 L 21 104 L 25.5 95.773438 L 34.5 95.773438 Z M 39 104 "/>
<path fill-rule="nonzero" fill="rgb(49.803922%, 0%, 100%)" fill-opacity="1" stroke-width="2" stroke-linecap="butt" stroke-linejoin="miter" stroke="rgb(49.803922%, 0%, 100%)" stroke-opacity="1" stroke-miterlimit="10" d="M 69 104 L 64.5 112.226562 L 55.5 112.226562 L 51 104 L 55.5 95.773438 L 64.5 95.773438 Z M 69 104 "/>
<path fill-rule="nonzero" fill="rgb(100%, 0%, 0%)" fill-opacity="1" stroke-width="2" stroke-linecap="butt" stroke-linejoin="miter" stroke="rgb(100%, 0%, 0%)" stroke-opacity="1" stroke-miterlimit="10" d="M 99 104 L 94.5 112.226562 L 85.5 112.226562 L 81 104 L 85.5 95.773438 L 94.5 95.773438 Z M 99 104 "/>
<path fill-rule="nonzero" fill="rgb(49.803922%, 0%, 100%)" fill-opacity="1" stroke-width="2" stroke-linecap="butt" stroke-linejoin="miter" stroke="rgb(49.803922%, 0%, 100%)" stroke-opacity="1" stroke-miterlimit="10" d="M 9 104 L 4.5 112.226562 L -4.5 112.226562 L -9 104 L -4.5 95.773438 L 4.5 95.773438 Z M 9 104 "/>
</svg>
